<?xml version="1.0" encoding="UTF-8"?>
<svg width="210mm" height="297mm" version="1.1" viewBox="0 0 744.09 1052.4" xmlns="http://www.w3.org/2000/svg">
 <g>
  <path d="m501.86-0.69922-287.34 162.53 0.01563 9.6367 241.35-136.06 81.496 151.96 65.514-0.02149-101.04-188.04zm-94.262 173.57v22.129h-14.744v19.375h14.744v116.03h21.893v-116.03h120.09l-0.00976 0.01172c16.027-0.0158 27.771-0.0802 44.014-0.17187 16.242-0.0917 31.869 7.5093 31.994 27.236s0.15857 23.749 0.05078 41.695-14.02 26.56-31.314 26.561c-17.157-0.00499-31.602-11.339-31.789-25.891-5e-3 -19.382-0.00195-38.764-0.00195-58.146h-21.811v12.461c-9.2456-7.4458-20.783-11.513-32.684-11.521-28.702-5.5e-4 -51.97 23.12-51.971 51.641 4.4e-4 28.521 23.269 51.641 51.971 51.641 17.383-0.0276 33.601-8.6892 43.215-23.08 9.1919 14.164 25.855 22.808 43.811 22.727 27.688-0.16142 50.116-20.689 50.383-46.115h0.0293s-0.0805-3.152 0-38.309c0.0805-35.157-22.783-50.683-51.92-50.379s-164.05 0.26562-164.05 0.26562v-22.129h-21.893zm-223.95 0.02929v66.268a50.819 52.085 0 0 0-33.52-12.994 50.819 52.085 0 0 0-50.82 52.086 50.819 52.085 0 0 0 50.82 52.084 50.819 52.085 0 0 0 33.52-13.021v12.797h21.34v-157.22h-21.34zm171.26 0.17969v157.1h21.854v-157.1h-21.854zm-180.07 10.477-174.99 98.811h91.07l0.080079-8.6309-60.266 0.53516 144.11-80.893 0.00195-9.8223zm103.43 42.711a51.567 51.869 0 0 0-51.566 51.867 51.567 51.869 0 0 0 51.566 51.869 51.567 51.869 0 0 0 48.449-34.244h-20.865a32.658 32.729 0 0 1-27.412 15.043 32.658 32.729 0 0 1-31.584-24.486h48.143 15.006 19.156a51.567 51.869 0 0 0 0.67383-8.1816 51.567 51.869 0 0 0-51.566-51.867zm0.17188 19.078a32.658 32.729 0 0 1 31.551 24.342h-63.078a32.658 32.729 0 0 1 31.527-24.342zm229.19 0.3789c18.018 7e-4 32.625 14.591 32.625 32.588 8.1e-4 17.998-14.606 32.589-32.625 32.59-18.02 3.8e-4 -32.628-14.591-32.627-32.59 2.7e-4 -17.998 14.608-32.588 32.627-32.588zm-356.53 0.10157a32.638 32.528 0 0 1 32.639 32.529 32.638 32.528 0 0 1-32.639 32.529 32.638 32.528 0 0 1-32.639-32.529 32.638 32.528 0 0 1 32.639-32.529zm447.55 111.1a19.976 21.175 0 0 0-19.975 21.176 19.976 21.175 0 0 0 19.975 21.174 19.976 21.175 0 0 0 19.977-21.174 19.976 21.175 0 0 0-19.977-21.176zm-105.79 0.2207v42.348h5.125v-42.348h-5.125zm-310.97 0.04883 0.00781 42.418h5.125v-19.432c1.8948-5e-3 5.9338 0.11981 8.5586 0.13281 1.6407 8e-3 3.0488-0.00823 5.1113 3.1172 4.1818 5.5896 7.4066 9.9929 10.75 16.238h6.9375s-0.125-1.0508-4.4375-7.4258-8.5391-12.189-8.5391-12.189c4.5155-1.7347 8.375-1.818 8.375-11.553s-6.6186-11.307-12.398-11.307-12.435-3.5e-4 -14.438 0-3.069 3.9e-4 -5.0527 0zm83.365 0v42.35h4.5625l0.125-32.488 22.062 32.488h5.5l-0.0625-42.35h-5.125l-0.125 32.361-21.75-32.361h-5.1875zm51.5 0 16.5 23.674-0.375 18.676h5.75l-0.125-18.801 17-23.549h-7l-12.375 18.674-11.875-18.674h-7.5zm43.25 0v37.221h-0.00195v5.125h0.00195v0.00391h5.125v-0.00391h20.428v-5.125h-20.428v-37.221h-5.125zm66.385 0a19.976 21.175 0 0 0-19.975 21.176 19.976 21.175 0 0 0 19.975 21.174 19.976 21.175 0 0 0 19.977-21.174 19.976 21.175 0 0 0-19.977-21.176zm94.398 0c-8.5295 0-13.466 3.8464-13.258 11.137 0.21494 7.5237 6.6296 9.4142 14.23 11.182 7.6014 1.7675 11.757 2.6517 11.713 8.6621-0.04419 6.0104-6.895 6.5847-11.314 6.6289-4.4194 0.0442-11.137-0.53035-11.049-9.0156-2.5548 0.0011-2.5125 0.05025-4.6738 0.06445-0.31521 9.9564 8.3413 13.691 15.545 13.691s16.298-1.2485 16.354-11.59c0.05485-10.193-7.2555-11.268-16.484-13.436-8.5382-2.0053-9.1474-3.2652-9.1484-7.1152-0.00103-3.8449 3.0494-6.2307 9.3691-6.3633 6.3198-0.13258 10.517 1.8772 10.605 8.1094 3.2041-0.0434 1.1058-0.04431 4.6855-0.06641-0.30936-10.253-8.0447-11.889-16.574-11.889zm-419.22 0.00195v5.125h13.312v37.223h5.125v-37.223h14v-5.125h-32.438zm65.625 0.01563v19.6 10.215h-0.01953a10.993 7.8086 0 0 1-10.992 7.7949 10.993 7.8086 0 0 1-10.992-7.7949h0.00391v-29.807h-5.125v28.842a16.131 13.132 0 0 0-0.01172 0.33593 16.131 13.132 0 0 0 0.01172 0.19141v0.4375h0.02734a16.131 13.132 0 0 0 16.092 12.502 16.131 13.132 0 0 0 16.104-12.502h0.02734v-0.62891-29.186h-5.125zm286.43 0.00195 0.00782 42.418h5.125l-0.08594-18.867c7.6763-3e-3 11.748-0.10282 16.172-0.10547 4.424-3e-3 10.67-2.4039 10.67-12.139s-6.6186-11.305-12.398-11.305-12.435-0.0023-14.438-0.00195-3.0691 3.9e-4 -5.0527 0zm89.736 0.02539v5.125h13.312v37.223h5.125v-37.223h14v-5.125h-32.438zm-292.59 0.03711v19.6 10.215h-0.01953a10.993 7.8086 0 0 1-10.992 7.7949 10.993 7.8086 0 0 1-10.992-7.7949h0.0039v-29.807h-5.125v28.842a16.131 13.132 0 0 0-0.01172 0.33594 16.131 13.132 0 0 0 0.01172 0.1914v0.4375h0.02735a16.131 13.132 0 0 0 16.092 12.502 16.131 13.132 0 0 0 16.104-12.502h0.02734v-0.6289-29.186h-5.125zm142.67 0.16797v42.35h5.125v-42.35h-5.125zm205.12 3.502a14.849 16.949 0 0 1 14.85 16.949 14.849 16.949 0 0 1-14.85 16.949 14.849 16.949 0 0 1-14.85-16.949 14.849 16.949 0 0 1 14.85-16.949zm-172.26 0.26953a14.849 16.949 0 0 1 14.85 16.949 14.849 16.949 0 0 1-14.85 16.949 14.849 16.949 0 0 1-14.85-16.949 14.849 16.949 0 0 1 14.85-16.949zm-225 1.6211c5.3097-2e-3 6.8295 2.1095 6.9512 5.582 0 5.8735-2.4887 6.2449-5.1836 6.6367-5.3291 0.67875-10.7 0.43994-16.045 0.48828v-12.68c5.7256-0.0265 10.713-0.02584 14.277-0.02734zm271.73 0.01953c5.3097-2e-3 6.8295 2.1115 6.9512 5.584 0 5.8735-2.4906 6.243-5.1856 6.6348-5.3291 0.67875-10.7 0.44189-16.045 0.49023v-12.682c5.7256-0.0265 10.715-0.02584 14.279-0.02734z" fill="#fff"/>
 </g>
</svg>
