<?xml version="1.0" standalone="no"?>
<!DOCTYPE svg PUBLIC "-//W3C//DTD SVG 20010904//EN"
 "http://www.w3.org/TR/2001/REC-SVG-20010904/DTD/svg10.dtd">
<svg version="1.0" xmlns="http://www.w3.org/2000/svg"
 width="160.000000pt" height="105.000000pt" viewBox="0 0 160.000000 105.000000"
 preserveAspectRatio="xMidYMid meet">

<g transform="translate(0.000000,105.000000) scale(0.100000,-0.100000)"
fill="#6d366f" stroke="none">
<path d="M940 855 c-190 -107 -346 -201 -348 -209 -2 -9 -1 -16 1 -16 3 0 130
70 283 157 154 86 285 156 291 157 7 1 57 -80 110 -179 l98 -180 83 -3 c45 -2
82 0 82 3 0 9 -226 426 -242 448 -12 15 -46 -2 -358 -178z"/>
<path d="M500 520 l0 -89 -35 21 c-81 47 -175 -16 -175 -117 0 -49 23 -100 54
-121 34 -21 98 -22 131 0 22 14 25 15 25 1 0 -9 9 -15 25 -15 l25 0 0 205 0
205 -25 0 c-25 0 -25 -1 -25 -90z m-23 -122 c33 -31 32 -100 -2 -133 -39 -40
-96 -32 -120 16 -35 67 -2 139 63 139 23 0 44 -8 59 -22z"/>
<path d="M912 408 c3 -202 3 -203 26 -206 l22 -3 0 205 0 206 -25 0 -25 0 2
-202z"/>
<path d="M1050 580 c0 -25 -4 -30 -25 -30 -34 0 -37 -47 -2 -52 22 -3 22 -6
25 -151 3 -147 3 -148 25 -145 21 3 22 7 25 151 l3 147 192 0 c214 0 227 -3
253 -66 39 -94 -14 -217 -78 -183 -35 18 -38 27 -38 122 0 86 0 87 -25 87 -16
0 -25 -6 -25 -15 0 -20 -7 -19 -37 5 -87 68 -205 -41 -173 -159 12 -47 50 -87
91 -95 32 -6 90 13 120 40 14 13 18 13 30 -2 8 -10 28 -23 46 -30 37 -16 67
-8 100 27 67 73 55 237 -22 297 -26 21 -37 22 -231 22 l-204 0 0 30 c0 25 -4
30 -25 30 -21 0 -25 -5 -25 -30z m300 -178 c13 -10 23 -33 27 -58 4 -33 1 -45
-22 -72 -43 -51 -104 -40 -131 25 -17 39 -11 68 19 101 25 27 76 29 107 4z"/>
<path d="M250 473 c-113 -63 -216 -121 -230 -128 -22 -13 -13 -14 98 -15 100
0 122 3 122 15 0 10 -16 15 -62 17 l-63 3 168 94 c149 83 189 112 176 126 -2
2 -96 -48 -209 -112z"/>
<path d="M673 454 c-63 -32 -84 -140 -40 -205 42 -62 138 -72 195 -19 27 25
28 36 3 49 -14 8 -23 5 -41 -14 -31 -33 -73 -33 -105 0 -47 46 -36 55 69 55
52 0 97 4 100 8 10 17 -13 86 -37 110 -32 31 -99 39 -144 16z m101 -45 c46
-36 35 -49 -44 -49 -67 0 -70 1 -60 19 12 23 49 51 66 51 6 0 23 -9 38 -21z"/>
<path d="M302 123 c12 -3 18 -17 21 -46 l4 -42 1 42 c2 30 7 43 20 46 9 3 -1
5 -23 5 -22 0 -32 -2 -23 -5z"/>
<path d="M374 91 c1 -30 6 -46 16 -49 12 -4 13 -2 3 9 -6 8 -13 30 -16 49 -4
28 -4 26 -3 -9z"/>
<path d="M432 100 c-1 -20 -7 -41 -14 -48 -9 -9 -9 -12 0 -12 17 0 24 22 19
62 l-4 33 -1 -35z"/>
<path d="M461 83 c0 -35 3 -43 9 -28 4 11 6 30 3 43 -4 15 -1 22 10 22 21 0
33 -20 17 -30 -9 -6 -9 -12 -1 -29 7 -11 13 -21 14 -21 2 0 3 19 3 43 -1 38
-3 42 -28 45 -27 3 -28 2 -27 -45z"/>
<path d="M541 88 c-1 -27 3 -48 7 -48 4 0 6 17 4 38 -5 58 -10 62 -11 10z"/>
<path d="M590 88 c-3 -26 -1 -43 3 -39 5 5 7 26 5 47 l-3 39 -5 -47z"/>
<path d="M632 85 c1 -49 1 -49 7 -11 l6 39 17 -36 c24 -51 38 -46 37 11 l-2
47 -7 -40 c-4 -22 -8 -35 -9 -30 0 6 -12 24 -26 40 l-24 30 1 -50z"/>
<path d="M754 105 c9 -13 16 -35 17 -47 1 -22 1 -22 8 3 5 14 14 36 20 50 l12
24 -19 -24 -20 -24 -6 21 c-4 12 -12 22 -18 22 -6 0 -3 -11 6 -25z"/>
<path d="M821 88 c-1 -27 3 -48 7 -48 4 0 6 17 4 38 -5 58 -10 62 -11 10z"/>
<path d="M893 85 c0 -27 2 -38 4 -22 2 15 2 37 0 50 -2 12 -4 0 -4 -28z"/>
<path d="M931 116 c-16 -19 -10 -68 9 -74 13 -4 13 -3 2 11 -8 9 -12 26 -10
39 4 33 52 33 56 0 2 -13 -2 -30 -8 -38 -9 -10 -9 -14 -1 -14 15 0 26 50 14
69 -14 22 -47 25 -62 7z"/>
<path d="M1021 83 c1 -27 3 -40 6 -30 2 9 10 17 18 17 7 0 18 7 25 15 16 19
-3 45 -31 45 -16 0 -19 -7 -18 -47z m42 31 c9 -10 -4 -34 -19 -34 -8 0 -14 9
-14 20 0 19 19 27 33 14z"/>
<path d="M1093 85 c0 -27 2 -38 4 -22 2 15 2 37 0 50 -2 12 -4 0 -4 -28z"/>
<path d="M1123 114 c-4 -11 2 -23 17 -34 13 -10 20 -22 16 -29 -4 -6 -2 -11 3
-11 19 0 12 39 -9 50 -26 14 -25 28 3 33 l22 4 -23 2 c-13 0 -25 -6 -29 -15z"/>
<path d="M1192 123 c12 -3 18 -17 21 -46 l4 -42 1 42 c2 30 7 43 20 46 9 3 -1
5 -23 5 -22 0 -32 -2 -23 -5z"/>
<path d="M1258 104 c-13 -28 -3 -54 23 -63 9 -3 8 2 -4 14 -21 21 -19 44 6 59
15 9 21 7 33 -8 18 -25 18 -31 -2 -50 -8 -9 -11 -16 -5 -16 11 0 31 32 31 49
0 16 -30 41 -51 41 -11 0 -24 -11 -31 -26z"/>
</g>
</svg>
