<?xml version="1.0" encoding="UTF-8"?>
<svg width="210mm" height="297mm" version="1.1" viewBox="0 0 744.09 1052.4" xmlns="http://www.w3.org/2000/svg">
 <g>
  <path d="m501.86-0.69922-287.34 162.53 0.01563 9.6367 241.35-136.06 81.496 151.96 65.514-0.02149-101.04-188.04zm-94.262 173.57v22.129h-14.744v19.375h14.744v116.03h21.893v-116.03h120.09l-0.00976 0.01172c16.027-0.0158 27.771-0.0802 44.014-0.17187 16.242-0.0917 31.869 7.5093 31.994 27.236s0.15857 23.749 0.05078 41.695-14.02 26.56-31.314 26.561c-17.157-0.00499-31.602-11.339-31.789-25.891-5e-3 -19.382-0.00195-38.764-0.00195-58.146h-21.811v12.461c-9.2456-7.4458-20.783-11.513-32.684-11.521-28.702-5.5e-4 -51.97 23.12-51.971 51.641 4.4e-4 28.521 23.269 51.641 51.971 51.641 17.383-0.0276 33.601-8.6892 43.215-23.08 9.1919 14.164 25.855 22.808 43.811 22.727 27.688-0.16142 50.116-20.689 50.383-46.115h0.0293s-0.0805-3.152 0-38.309c0.0805-35.157-22.783-50.683-51.92-50.379s-164.05 0.26562-164.05 0.26562v-22.129h-21.893zm-223.95 0.02929v66.268a50.819 52.085 0 0 0-33.52-12.994 50.819 52.085 0 0 0-50.82 52.086 50.819 52.085 0 0 0 50.82 52.084 50.819 52.085 0 0 0 33.52-13.021v12.797h21.34v-157.22h-21.34zm171.26 0.17969v157.1h21.854v-157.1h-21.854zm-180.07 10.477-174.99 98.811h91.07l0.080079-8.6309-60.266 0.53516 144.11-80.893 0.00195-9.8223zm103.43 42.711a51.567 51.869 0 0 0-51.566 51.867 51.567 51.869 0 0 0 51.566 51.869 51.567 51.869 0 0 0 48.449-34.244h-20.865a32.658 32.729 0 0 1-27.412 15.043 32.658 32.729 0 0 1-31.584-24.486h48.143 15.006 19.156a51.567 51.869 0 0 0 0.67383-8.1816 51.567 51.869 0 0 0-51.566-51.867zm0.17188 19.078a32.658 32.729 0 0 1 31.551 24.342h-63.078a32.658 32.729 0 0 1 31.527-24.342zm229.19 0.3789c18.018 7e-4 32.625 14.591 32.625 32.588 8.1e-4 17.998-14.606 32.589-32.625 32.59-18.02 3.8e-4 -32.628-14.591-32.627-32.59 2.7e-4 -17.998 14.608-32.588 32.627-32.588zm-356.53 0.10157a32.638 32.528 0 0 1 32.639 32.529 32.638 32.528 0 0 1-32.639 32.529 32.638 32.528 0 0 1-32.639-32.529 32.638 32.528 0 0 1 32.639-32.529z" fill="#fff" fill-rule="evenodd"/>
 </g>
</svg>
